<?xml version="1.0" encoding="utf-8"?>
<!-- Generator: Adobe Illustrator 26.5.0, SVG Export Plug-In . SVG Version: 6.00 Build 0)  -->
<svg version="1.1" id="Layer_1" xmlns="http://www.w3.org/2000/svg" xmlns:xlink="http://www.w3.org/1999/xlink" x="0px" y="0px"
	 viewBox="0 0 296 228" style="enable-background:new 0 0 296 228;" xml:space="preserve">
<style type="text/css">
	.st0{opacity:9.000000e-02;fill:#007BFF;enable-background:new    ;}
	.st1{fill-rule:evenodd;clip-rule:evenodd;fill:#FF0000;fill-opacity:1.000000e-02;}
	.st2{fill:#FFFFFF;}
	.st3{fill:#F6F6F6;}
	.st4{fill:#007BFF;}
	.st5{opacity:0.8;fill:#B7B7B7;enable-background:new    ;}
	.st6{fill:#004BFF;}
	.st7{fill:#0058FF;}
	.st8{fill:#FFC01F;}
	.st9{fill:#FFAA5B;}
	.st10{fill:#B7B7B7;}
	.st11{fill:#E9E9E9;}
</style>
<circle class="st0" cx="142.5" cy="113.7" r="110.7"/>
<g>
	<path shape-rendering="crispEdges" class="st1" d="M186,127c0-5.1,4.7-9.2,7.4-13.5c0.9-1.4,1.4-3.1,1.4-4.9V44.2
		c0-5.2-4.3-9.5-9.5-9.5H37.5c-5.2,0-9.5,4.3-9.5,9.5v64.4c0,1.8,0.5,3.5,1.4,4.9c2.6,4.3,7.4,8.5,7.4,13.5v43.7v12.4
		c0,0.7,0.1,1.3,0.2,1.9c0.9,4.3,4.7,7.6,9.3,7.6h130.2c5.2,0,9.5-4.3,9.5-9.5v-12.4V127z"/>
</g>
<path class="st2" d="M186,183.1c0,5.2-4.3,9.5-9.5,9.5H46.3c-5.2,0-9.5-4.3-9.5-9.5V65.4H186V183.1z"/>
<path class="st3" d="M36.8,170.7H186v12.4c0,5.2-4.3,9.5-9.5,9.5H46.3c-5.2,0-9.5-4.3-9.5-9.5V170.7z"/>
<path class="st4" d="M128.9,192.6v-44.2c0-9.5-8-17.2-17.6-17.2s-17.4,7.7-17.4,17.2v44.2H128.9z"/>
<path class="st5" d="M146.5,130.8c0-2.2,1.8-4,4-4h13.9c2.2,0,4,1.8,4,4v27.1c0,2.2-1.8,4-4,4h-13.9c-2.2,0-4-1.8-4-4V130.8z
	 M54.3,130.8c0-2.2,1.8-4,4-4h13.9c2.2,0,4,1.8,4,4v27.1c0,2.2-1.8,4-4,4H58.3c-2.2,0-4-1.8-4-4V130.8z"/>
<path class="st4" d="M194.7,108.5c0,5.2-4.3,9.5-9.5,9.5h-46.6l-27.2-41.8L84.1,118H37.5c-5.2,0-9.5-4.3-9.5-9.5V44.2
	c0-5.2,4.3-9.5,9.5-9.5h147.7c5.2,0,9.5,4.3,9.5,9.5V108.5z"/>
<path class="st6" d="M69.1,118h15l23.1-35.3c2-3,6.4-3,8.4,0l23.1,35.3h16.6l-38.9-59.4c-2-3-6.4-3-8.4,0L69.1,118z"/>
<g>
	<path shape-rendering="crispEdges" class="st1" d="M254.6,84.2c-1,1.1-2.3,1.9-3.7,2.4c-0.6,0.2-1.3,0.4-2,0.4v-4.9
		c0.6-0.1,1.2-0.3,1.8-0.6c1.1-0.4,2-1,2.9-1.8L254.6,84.2z M217.5,84.6l-3.1,0.3l2.1,2.3l-0.7,3l2.8-1.3l2.7,1.6l-0.4-3.1l2.3-2
		l-3-0.6L219,82L217.5,84.6z M226,162.8l0.8-0.4l0,0c0.4-0.1,0.7-0.3,1-0.5l0.4-0.2l0,0c0.1-0.1,0.2-0.2,0.4-0.3
		c0.9-0.9,1.3-2.2,1.3-3.8c6.9,2.7,12.9,7.3,17.4,13.3c0.3-1.4,0.6-2.8,1-4.3l0.4-1.6c-3.9-4.8-8.9-8.6-14.5-11.1
		c-1.8-0.8-3.6-1.4-5.5-1.9c-1.8-4.3-5.2-9.5-9.9-14.7c0.6-0.3,1.2-0.6,1.8-0.8c5.1-2.3,9.8-4.5,10.6-7.9l1.2-5.2c0,0.1,0,0.1,0,0.2
		v-0.2c1.2-5-1.3-8.7-3.7-12.1c-1.4-2-2.7-3.9-3.2-6c2.3-1.8,6.8-0.5,11.1,0.8c4.8,1.5,9.3,2.8,10.2-0.6l1.2-5.2
		c-0.8,3.4-5.3,2-10.1,0.6c-5.4-1.6-11.1-3.4-12.4,1.3c0-0.1,0-0.2,0.1-0.4l-1.2,5.2c-1.3,4.9,1.2,8.5,3.5,11.9c1.4,2,2.8,4,3.3,6.2
		c-1.9,1.6-5.6,2.5-9.6,3.4l0,0l-0.2,0.1l0.6-1.9c-0.9-0.1-1.7-0.4-2.4-0.9c-1.3-0.8-2.4-2-3-3.5c-0.9,1.6-1.9,3.1-2.8,4.7
		c0.4,1.2,1.2,2.2,2.1,3c-1.1,0.3-2.1,0.7-3.1,1.1c-3-2.7-6.2-5.1-9.6-7.1c2.3-2.6,4.2-5.1,3.4-7.6l-1.2-3.3l0,0
		c-0.1-0.4-0.2-0.7-0.4-1.1l-0.2-0.6c0,0.1,0.1,0.2,0.1,0.3c-1.8-3.1-6.3-4.2-10.6-5.2l0,0l0,0c-2.4-0.6-4.7-1.1-6.3-2
		c1.4-2.6,4.8-4.7,8-6.8c4-2.6,7.8-5,7.1-7.8l-2.7-7.6c0.8,2.8-2.9,5.8-6.7,9c-4,3.4-8.3,6.9-8.2,10.7c0-0.1,0-0.1-0.1-0.2l0.1,0.4
		c0,0.3,0.1,0.6,0.2,0.9l0,0l0.7,3.8c0.8,2.8,4.7,3.7,8.9,4.7c3.3,0.8,6.8,1.6,9,3.4c-0.8,1.6-2.2,3.1-3.6,4.8
		c-0.5,0.6-1,1.2-1.5,1.8c-4.7-2.1-8.3-2.2-10.1-0.4c-0.2,0.2-0.3,0.4-0.5,0.6l0,0l-0.1,0.2c-0.1,0.1-0.2,0.3-0.2,0.5
		c-1.9,3.7-3.7,7.6-5.6,11.8c-1.3,2.9-2.5,5.9-3.7,9.1c-0.5,1.2-0.9,2.3-1.4,3.5l0,0l0,0c-0.1,0.3-0.2,0.6-0.3,0.8
		c-0.9,2.4-1.7,4.8-2.6,7.2c-1,3-2,6.1-2.9,9l0,0c-1.1,3.5-2,6.7-2.7,9.7c-0.2,1.2-0.1,2.4,0.3,3.5s1,2.1,1.8,3
		c0.8,0.8,1.8,1.5,3,1.8c1.1,0.4,2.3,0.5,3.5,0.3c3.2-0.8,6.4-1.8,9.5-3c1.4-0.5,2.8-1.1,4.2-1.7l0,0c1.4-0.6,2.8-1.1,4.3-1.7
		c1.7-0.7,3.5-1.4,5.4-2c2-0.7,4-1.5,6-2.3c2.9-1.2,5.9-2.5,8.7-3.8C219,166.2,222.7,164.4,226,162.8z M174.5,113.4l3.5-1l1.2-3.4
		l2,3l3.6,0.1l-2.3,2.8l1.1,3.5l-3.4-1.3l-3,2.1l0.2-3.6L174.5,113.4z M244.2,149.8l-2.9-1l1,2.9l-1.9,2.5h3.1l1.8,2.5l0.9-2.9
		l3-0.9l-2.5-1.8l0.1-3.1L244.2,149.8z M253.6,117.3l5.7,2l4.8-3.5l-0.1,6l4.9,3.5l-5.8,1.7l-1.8,5.7l-3.4-4.9h-6l3.6-4.8
		L253.6,117.3z M212,115.8c0.9-0.4,1.8-0.9,2.5-1.7l-0.8-3.3c-1.4,0.9-3,1.3-4.6,1.2v4.2C210,116.3,211.1,116.2,212,115.8z
		 M176.9,88.9c-0.7-0.7-1.3-1.5-1.7-2.5l2-2.8c0.6,0.8,1.4,1.6,2.3,2.1c0.5,0.3,1,0.6,1.5,0.7l-1.6,3.9
		C178.5,90.1,177.6,89.6,176.9,88.9z M243.2,143.3c-1,1.1-2.3,1.9-3.7,2.4c-0.6,0.2-1.3,0.4-2,0.4v-4.9c1.7-0.4,3.3-1.2,4.7-2.4
		L243.2,143.3z M255.3,109.7c1.5,1.5,3.4,2.5,5.4,2.9l0.8-3.8c-1-0.2-1.9-0.7-2.7-1.3c-0.8-0.6-1.5-1.4-2-2.3L255.3,109.7z"/>
</g>
<path class="st4" d="M228.2,161.8c-3.8,1.9-8.3,4.1-13,6.2c-2.8,1.3-5.8,2.6-8.7,3.8c-2,0.9-4,1.6-6,2.3c-1.9,0.7-3.7,1.3-5.4,2
	c-3,1.1-5.7,2.3-8.5,3.3c-3.1,1.2-6.3,2.2-9.5,3c-1.2,0.2-2.4,0-3.5-0.3c-1.1-0.4-2.1-1-3-1.8c-0.8-0.8-1.5-1.8-1.8-3
	s-0.5-2.3-0.3-3.5c0.7-3,1.7-6.2,2.7-9.7l0,0c0.9-3,1.9-6,2.9-9c0.8-2.4,1.7-4.9,2.6-7.2c0.6-1.5,1.1-3,1.7-4.4
	c1.2-3.2,2.5-6.2,3.7-9.1c2-4.5,3.9-8.6,5.9-12.5C201.4,135.3,214.8,148.5,228.2,161.8z"/>
<path class="st7" d="M228,161c3.7-3.7-2-15.5-12.8-26.3s-22.5-16.5-26.3-12.8c-3.7,3.7,2,15.5,12.8,26.3
	C212.6,159,224.3,164.7,228,161z"/>
<path class="st4" d="M224.8,162.7c-5.5,0-14.7-5.3-23.5-14.1c-11.2-11.2-16.8-23.1-12.8-27.1c2-2,6-1.7,11.2,0.8
	c5.9,3.1,11.3,7.1,15.9,12c11.2,11.2,16.8,23.1,12.8,27.1c-0.5,0.5-1.1,0.8-1.7,1C226.1,162.7,225.5,162.8,224.8,162.7z
	 M192.2,121.4c-0.5,0-1,0-1.5,0.2s-0.9,0.4-1.3,0.8c-3,3,1.4,14,12.8,25.4c11.4,11.4,22.3,15.8,25.4,12.8c3-3-1.4-14-12.8-25.4
	c-4.5-4.7-9.8-8.7-15.6-11.7C197,122.3,194.7,121.6,192.2,121.4z"/>
<path class="st8" d="M214.5,84.8l3.1-0.3l1.5-2.7l1.2,2.8l3,0.6l-2.3,2l0.4,3.1l-2.7-1.6l-2.8,1.3l0.7-3L214.5,84.8z"/>
<path class="st8" d="M174.5,113.4l3.5-1l1.2-3.4l2,3l3.6,0.1l-2.3,2.8l1.1,3.5l-3.4-1.3l-3,2.1l0.2-3.6L174.5,113.4z"/>
<path class="st8" d="M241.3,148.8l2.9,1l2.5-1.8l-0.1,3.1l2.5,1.8l-3,0.9l-0.9,2.9l-1.8-2.5h-3.1l1.9-2.5L241.3,148.8z"/>
<path class="st8" d="M253.6,117.3l5.7,2l4.8-3.5l-0.1,6l4.9,3.5l-5.8,1.7l-1.8,5.7l-3.4-4.9h-6l3.6-4.8L253.6,117.3z"/>
<path class="st9" d="M223.9,107.6c2.3-9.4,20.9,5.2,22.6-2.1l1.2-5.2c-1.7,7.3-20.4-7.3-22.6,2.1L223.9,107.6z"/>
<path class="st9" d="M230.9,128.5c1.6-7.6-9.3-12.3-6.9-21.5l1.2-5.2c-1.7,7.3,9.1,12,6.9,21.4L230.9,128.5z"/>
<path class="st9" d="M207.2,146.9c2.3-9.4,21.9-11,23.7-18.4l1.2-5.2c-1.8,6.4-24,4.3-26.2,14.3L207.2,146.9z"/>
<path class="st9" d="M215.9,150.7c-2.7,0.3-5.4,0.9-8,1.9l0,0c1,0.7,1.6,1.2,1.9,1.4c0.4,0.3,1,0.7,1.8,1.3c2.7-0.3,5.5-0.4,8.2-0.1
	c1.5,0.1,2.9,0.4,4.4,0.7c9.2,2,17.4,7.4,23,15c0.4-2,0.9-3.9,1.3-5.9c-3.9-4.8-8.9-8.6-14.5-11.1
	C228.2,151.4,222.1,150.4,215.9,150.7z"/>
<path class="st9" d="M187.1,108.2c-2.1-7.8,17.2-12.2,15.5-18.1l-2.7-7.6c1.6,6-16.9,13-14.7,20.8L187.1,108.2z"/>
<path class="st9" d="M206,118.5c-2.1-7.8-18.5-5.3-20.1-11.3L185,102c1.6,6,17.9,3.5,20.1,11.3L206,118.5z"/>
<path class="st9" d="M197.2,136.1c-2.3-7.8,10.9-13.7,9.1-19.6l-1.9-4.9c1.7,5.9-11.4,11.8-9.1,19.6L197.2,136.1z"/>
<path class="st10" d="M220.1,132c-1.6-0.1-3.2-0.7-4.4-1.8c-1-0.8-1.7-1.9-2.2-3.1c0.9-1.6,1.9-3.1,2.8-4.7c0.6,1.4,1.6,2.6,3,3.5
	c0.8,0.4,1.6,0.7,2.4,0.9L220.1,132z"/>
<path class="st10" d="M214.5,114.1c-0.7,0.7-1.5,1.3-2.5,1.7c-0.9,0.4-2,0.5-3,0.4V112c1.6,0.1,3.2-0.4,4.6-1.2L214.5,114.1z"/>
<path class="st10" d="M254.6,84.2c-1,1.1-2.3,1.9-3.7,2.4c-0.6,0.2-1.3,0.4-2,0.4v-4.9c0.6-0.1,1.2-0.3,1.8-0.6c1.1-0.4,2-1,2.9-1.8
	L254.6,84.2z"/>
<path class="st11" d="M175.2,86.4c0.4,0.9,0.9,1.8,1.7,2.5c0.7,0.7,1.6,1.2,2.6,1.5l1.6-3.9c-0.5-0.2-1.1-0.4-1.5-0.7
	c-0.9-0.6-1.7-1.3-2.3-2.1L175.2,86.4z"/>
<path class="st10" d="M243.2,143.3c-1,1.1-2.3,1.9-3.7,2.4c-0.6,0.2-1.3,0.3-2,0.4v-4.9c1.7-0.4,3.3-1.2,4.7-2.4L243.2,143.3z"/>
<path class="st10" d="M260.7,112.6c-2-0.5-3.9-1.5-5.4-2.9l1.5-4.4c0.5,0.9,1.2,1.7,2,2.3c0.8,0.6,1.7,1,2.7,1.3L260.7,112.6z"/>
</svg>
