<?xml version="1.0" encoding="utf-8"?>
<!-- Generator: Adobe Illustrator 26.5.0, SVG Export Plug-In . SVG Version: 6.00 Build 0)  -->
<svg version="1.1" id="Layer_1" xmlns="http://www.w3.org/2000/svg" xmlns:xlink="http://www.w3.org/1999/xlink" x="0px" y="0px"
	 viewBox="0 0 296 228" style="enable-background:new 0 0 296 228;" xml:space="preserve">
<style type="text/css">
	.st0{clip-path:url(#SVGID_00000083804057193907311960000003101827458581348519_);}
	.st1{opacity:9.000000e-02;fill:#007BFF;enable-background:new    ;}
	.st2{fill:#FF0000;fill-opacity:1.000000e-02;}
	.st3{fill:#FFFFFF;}
	.st4{fill:none;stroke:#007BFF;stroke-width:5;stroke-linecap:round;stroke-linejoin:round;stroke-miterlimit:10;}
	.st5{fill:none;stroke:#007BFF;stroke-width:5;stroke-miterlimit:10;}
	.st6{fill:#E9E9E9;}
	.st7{opacity:0.7;fill:#E9E9E9;enable-background:new    ;}
	.st8{fill:#007BFF;}
	.st9{opacity:0.2;fill:#8D8D91;enable-background:new    ;}
	.st10{opacity:0.4;fill:#B7B7B7;enable-background:new    ;}
	.st11{opacity:0.6;fill:#E9E9E9;enable-background:new    ;}
	.st12{fill:#B7B7B7;}
	.st13{opacity:0.31;fill:#B7B7B7;enable-background:new    ;}
	.st14{opacity:0.3;fill:#B7B7B7;enable-background:new    ;}
	.st15{opacity:0.83;fill:url(#SVGID_00000129917747435006722470000010486708585293184429_);enable-background:new    ;}
</style>
<g>
	<g>
		<defs>
			<rect id="SVGID_1_" width="296" height="228"/>
		</defs>
		<clipPath id="SVGID_00000133510262058319369580000008437422630792151479_">
			<use xlink:href="#SVGID_1_"  style="overflow:visible;"/>
		</clipPath>
		<g style="clip-path:url(#SVGID_00000133510262058319369580000008437422630792151479_);">
			<circle class="st1" cx="147.8" cy="117" r="110.7"/>
			<g>
				<path shape-rendering="crispEdges" class="st2" d="M8,127.3h279.7c4.4,0,8,3.6,8,8v46.9c0,4.4-3.6,8-8,8H8c-4.4,0-8-3.6-8-8
					v-46.9C0,130.9,3.6,127.3,8,127.3z"/>
			</g>
			<path class="st3" d="M8,127.3h279.7c4.4,0,8,3.6,8,8v46.9c0,4.4-3.6,8-8,8H8c-4.4,0-8-3.6-8-8v-46.9C0,130.9,3.6,127.3,8,127.3z"
				/>
			<path class="st4" d="M36.7,165.8l7,7"/>
			<path class="st5" d="M15.6,156.8c0,1.6,0.3,3.2,0.9,4.6c0.6,1.5,1.5,2.8,2.6,3.9c1.1,1.1,2.4,2,3.9,2.6s3,0.9,4.6,0.9
				s3.1-0.3,4.6-0.9s2.8-1.5,3.9-2.6c1.1-1.1,2-2.4,2.6-3.9s0.9-3,0.9-4.6c0-3.2-1.3-6.3-3.5-8.5c-2.3-2.3-5.3-3.5-8.5-3.5
				s-6.3,1.3-8.5,3.5S15.6,153.6,15.6,156.8L15.6,156.8z"/>
			<path class="st6" d="M64.9,154.8h177.9c2.2,0,3.9,1.8,3.9,3.9l0,0c0,2.2-1.8,3.9-3.9,3.9H64.9c-2.2,0-3.9-1.8-3.9-3.9l0,0
				C60.9,156.6,62.7,154.8,64.9,154.8z"/>
			<g>
				<path shape-rendering="crispEdges" class="st2" d="M119.8,0h56.1c4.4,0,8,3.6,8,8v69.7c0,4.4-3.6,8-8,8h-56.1c-4.4,0-8-3.6-8-8
					V8C111.8,3.6,115.4,0,119.8,0z"/>
			</g>
			<path class="st3" d="M119.8,0h56.1c4.4,0,8,3.6,8,8v69.7c0,4.4-3.6,8-8,8h-56.1c-4.4,0-8-3.6-8-8V8C111.8,3.6,115.4,0,119.8,0z"
				/>
			<path class="st7" d="M164.8,31.1v22.5c0,1.1-0.9,2-2,2h-30c-1.1,0-2-0.9-2-2V31.1l17-17.6L164.8,31.1z"/>
			<path class="st8" d="M136.3,55.6V37.4c0-0.6,0.4-1,1-1h7.4c0.6,0,1,0.4,1,1v18.2C145.7,55.6,136.3,55.6,136.3,55.6z M148.6,10.4
				c-0.4-0.4-1-0.4-1.4,0l-21.3,21.5c-0.4,0.4-0.4,1,0,1.4l1.5,1.5c0.4,0.4,1,0.4,1.4,0L147.9,15L167,34.8c0.4,0.4,1,0.4,1.4,0
				l1.5-1.5c0.4-0.4,0.4-1,0-1.4l-5-5V14.4c0-0.6-0.4-1-1-1h-3.7c-0.6,0-1,0.4-1,1v6.7L148.6,10.4z"/>
			<path class="st9" d="M141.5,29.8c-0.6,0-1.1-0.6-0.9-1.2c2.2-7,12.3-7,14.5,0c0.2,0.6-0.3,1.2-0.9,1.2H141.5z"/>
			<path class="st9" d="M150,37.4c0-0.6,0.4-1,1-1h7.4c0.6,0,1,0.4,1,1V45c0,0.6-0.4,1-1,1H151c-0.6,0-1-0.4-1-1V37.4z"/>
			<path class="st10" d="M123.8,64.2h48c1.8,0,3.2,1.4,3.2,3.2l0,0c0,1.8-1.4,3.2-3.2,3.2h-48c-1.8,0-3.2-1.4-3.2-3.2l0,0
				C120.6,65.6,122.1,64.2,123.8,64.2z"/>
			<path class="st8" d="M179.2,94.3c9.7,0,17.5-7.8,17.5-17.5s-7.8-17.5-17.5-17.5s-17.5,7.8-17.5,17.5S169.5,94.3,179.2,94.3z"/>
			<path class="st3" d="M176.1,73.3l2.4-4.8c0.1-0.1,0.2-0.3,0.3-0.3c0.1-0.1,0.3-0.1,0.4-0.1c0.2,0,0.3,0,0.4,0.1
				c0.1,0.1,0.2,0.2,0.3,0.3l2.4,4.8l5.3,0.8c0.2,0,0.3,0.1,0.4,0.2s0.2,0.2,0.3,0.4c0,0.1,0.1,0.3,0,0.5c0,0.2-0.1,0.3-0.2,0.4
				l-3.9,3.7l0.9,5.3c0.1,0.7-0.6,1.2-1.2,0.9l-4.8-2.5l-4.8,2.5c-0.6,0.3-1.3-0.2-1.2-0.9l0.9-5.3l-3.9-3.7
				c-0.1-0.1-0.2-0.2-0.2-0.4c0-0.2,0-0.3,0-0.5c0-0.1,0.1-0.3,0.3-0.4s0.3-0.2,0.4-0.2L176.1,73.3z"/>
			<g>
				<path shape-rendering="crispEdges" class="st2" d="M221.6,27.7h56.1c4.4,0,8,3.6,8,8v69.7c0,4.4-3.6,8-8,8h-56.1
					c-4.4,0-8-3.6-8-8V35.7C213.6,31.3,217.2,27.7,221.6,27.7z"/>
			</g>
			<path class="st3" d="M221.6,27.7h56.1c4.4,0,8,3.6,8,8v69.7c0,4.4-3.6,8-8,8h-56.1c-4.4,0-8-3.6-8-8V35.7
				C213.6,31.3,217.2,27.7,221.6,27.7z"/>
			<path class="st11" d="M267.3,62.6v23.2c0,1.1-0.9,2-2,2h-31c-1.1,0-2-0.9-2-2V62.6l17.5-18.1L267.3,62.6z"/>
			<path class="st12" d="M237.9,87.8V69.1c0-0.6,0.4-1,1-1h7.7c0.6,0,1,0.4,1,1v18.7H237.9z M250.5,41.3c-0.4-0.4-1-0.4-1.4,0
				l-21.9,22.2c-0.4,0.4-0.4,1,0,1.4l1.5,1.5c0.4,0.4,1,0.4,1.4,0L249.8,46l19.6,20.4c0.4,0.4,1,0.4,1.4,0l1.5-1.5
				c0.4-0.4,0.4-1,0-1.4l-5.1-5.2V45.5c0-0.6-0.4-1-1-1h-3.8c-0.6,0-1,0.4-1,1v6.9L250.5,41.3z"/>
			<path class="st13" d="M243.2,61.2c-0.6,0-1.1-0.6-0.9-1.2c2.3-7.2,12.7-7.2,14.9,0c0.2,0.6-0.3,1.2-0.9,1.2H243.2z"/>
			<path class="st13" d="M252,69.1c0-0.6,0.4-1,1-1h7.7c0.6,0,1,0.4,1,1v7.8c0,0.6-0.4,1-1,1H253c-0.6,0-1-0.4-1-1V69.1z"/>
			<path class="st14" d="M226,95h48c1.8,0,3.2,1.4,3.2,3.2l0,0c0,1.8-1.4,3.2-3.2,3.2h-48c-1.8,0-3.2-1.4-3.2-3.2l0,0
				C222.8,96.4,224.2,95,226,95z"/>
			<g>
				<path shape-rendering="crispEdges" class="st2" d="M18,27.7h56.1c4.4,0,8,3.6,8,8v69.7c0,4.4-3.6,8-8,8H18c-4.4,0-8-3.6-8-8
					V35.7C10,31.3,13.6,27.7,18,27.7z"/>
			</g>
			<path class="st3" d="M18,27.7h56.1c4.4,0,8,3.6,8,8v69.7c0,4.4-3.6,8-8,8H18c-4.4,0-8-3.6-8-8V35.7C10,31.3,13.6,27.7,18,27.7z"
				/>
			<path class="st11" d="M63.5,60.6v23.1c0,1.1-0.9,2-2,2H30.6c-1.1,0-2-0.9-2-2V60.6L46,42.5L63.5,60.6z"/>
			<path class="st12" d="M34.1,85.7V67c0-0.6,0.4-1,1-1h7.7c0.6,0,1,0.4,1,1v18.7H34.1z M46.7,39.3c-0.4-0.4-1-0.4-1.4,0L23.5,61.4
				c-0.4,0.4-0.4,1,0,1.4l1.5,1.5c0.4,0.4,1,0.4,1.4,0L46,44l19.6,20.4c0.4,0.4,1,0.4,1.4,0l1.5-1.5c0.4-0.4,0.4-1,0-1.4l-5.1-5.2
				V43.5c0-0.6-0.4-1-1-1h-3.8c-0.6,0-1,0.4-1,1v6.9L46.7,39.3z"/>
			<path class="st13" d="M39.4,59.2c-0.6,0-1.1-0.6-0.9-1.2c2.3-7.2,12.6-7.2,14.9,0c0.2,0.6-0.3,1.2-0.9,1.2H39.4z"/>
			<path class="st13" d="M48.2,67c0-0.6,0.4-1,1-1h7.7c0.6,0,1,0.4,1,1v7.8c0,0.6-0.4,1-1,1h-7.7c-0.6,0-1-0.4-1-1V67z"/>
			<path class="st14" d="M22,95h48c1.8,0,3.2,1.4,3.2,3.2l0,0c0,1.8-1.4,3.2-3.2,3.2H22c-1.8,0-3.2-1.4-3.2-3.2l0,0
				C18.8,96.4,20.3,95,22,95z"/>
			
				<linearGradient id="SVGID_00000098200191155296521090000013188437713207336107_" gradientUnits="userSpaceOnUse" x1="360.7" y1="161.5" x2="715.3" y2="161.5" gradientTransform="matrix(1 0 0 -1 0 230)">
				<stop  offset="0" style="stop-color:#498B69"/>
				<stop  offset="1" style="stop-color:#148072"/>
			</linearGradient>
			
				<circle style="opacity:0.83;fill:url(#SVGID_00000098200191155296521090000013188437713207336107_);enable-background:new    ;" cx="538" cy="68.5" r="177.3"/>
		</g>
	</g>
</g>
</svg>
