<?xml version="1.0" encoding="utf-8"?>
<!-- Generator: Adobe Illustrator 26.5.0, SVG Export Plug-In . SVG Version: 6.00 Build 0)  -->
<svg version="1.1" id="Layer_1" xmlns="http://www.w3.org/2000/svg" xmlns:xlink="http://www.w3.org/1999/xlink" x="0px" y="0px"
	 viewBox="0 0 296 228" style="enable-background:new 0 0 296 228;" xml:space="preserve">
<style type="text/css">
	.st0{opacity:9.000000e-02;fill:#007BFF;enable-background:new    ;}
	.st1{fill:#FFFFFF;}
	.st2{fill:#E9E9E9;}
	.st3{fill:#007BFF;}
	.st4{fill:#334051;}
	.st5{fill:#FF0000;fill-opacity:1.000000e-02;}
	.st6{opacity:0.4;fill:#B7B7B7;enable-background:new    ;}
	.st7{fill:#F6F6F6;}
</style>
<circle class="st0" cx="146.6" cy="113.7" r="110.7"/>
<g>
	<path class="st1" d="M53.3,29.8h153.8c5.3,0,9.5,4.3,9.5,9.5v144.5c0,5.3-4.3,9.5-9.5,9.5H53.3c-5.3,0-9.5-4.3-9.5-9.5V39.3
		C43.8,34.1,48,29.8,53.3,29.8z"/>
</g>
<path class="st2" d="M73.4,92.4h19.3c4.4,0,8,3.6,8,8v19.3c0,4.4-3.6,8-8,8H73.4c-4.4,0-8-3.6-8-8v-19.3C65.4,96,69,92.4,73.4,92.4z
	"/>
<path class="st2" d="M73.4,137.5h19.3c4.4,0,8,3.6,8,8v19.3c0,4.4-3.6,8-8,8H73.4c-4.4,0-8-3.6-8-8v-19.3
	C65.4,141.1,69,137.5,73.4,137.5z"/>
<path class="st3" d="M121.3,92.4h19.3c4.4,0,8,3.6,8,8v19.3c0,4.4-3.6,8-8,8h-19.3c-4.4,0-8-3.6-8-8v-19.3
	C113.3,96,116.9,92.4,121.3,92.4z"/>
<path class="st2" d="M121.3,137.5h19.3c4.4,0,8,3.6,8,8v19.3c0,4.4-3.6,8-8,8h-19.3c-4.4,0-8-3.6-8-8v-19.3
	C113.3,141.1,116.9,137.5,121.3,137.5z"/>
<path class="st2" d="M169.3,92.4h19.3c4.4,0,8,3.6,8,8v19.3c0,4.4-3.6,8-8,8h-19.3c-4.4,0-8-3.6-8-8v-19.3
	C161.2,96,164.8,92.4,169.3,92.4z"/>
<path class="st2" d="M169.3,137.5h19.3c4.4,0,8,3.6,8,8v19.3c0,4.4-3.6,8-8,8h-19.3c-4.4,0-8-3.6-8-8v-19.3
	C161.2,141.1,164.8,137.5,169.3,137.5z"/>
<path class="st3" d="M43.8,39.3c0-5.3,4.3-9.5,9.5-9.5h153.8c5.3,0,9.5,4.3,9.5,9.5v33.1H43.8V39.3z"/>
<path class="st4" d="M90.3,13.9L90.3,13.9c3.4,0,6.2,2.8,6.2,6.2v25.7c0,3.4-2.8,6.2-6.2,6.2l0,0c-3.4,0-6.2-2.8-6.2-6.2V20.1
	C84.1,16.7,86.9,13.9,90.3,13.9z"/>
<path class="st4" d="M170.1,13.9L170.1,13.9c3.4,0,6.2,2.8,6.2,6.2v25.7c0,3.4-2.8,6.2-6.2,6.2l0,0c-3.4,0-6.2-2.8-6.2-6.2V20.1
	C163.9,16.7,166.7,13.9,170.1,13.9z"/>
<g>
	<path shape-rendering="crispEdges" class="st5" d="M194.2,61.8h57c5.4,0,9.7,4.3,9.7,9.7v77c0,5.4-4.3,9.7-9.7,9.7h-57
		c-5.4,0-9.7-4.3-9.7-9.7v-77C184.4,66.2,188.8,61.8,194.2,61.8z"/>
</g>
<path class="st1" d="M194.2,61.8h57c5.4,0,9.7,4.3,9.7,9.7v77c0,5.4-4.3,9.7-9.7,9.7h-57c-5.4,0-9.7-4.3-9.7-9.7v-77
	C184.4,66.2,188.8,61.8,194.2,61.8z"/>
<path class="st6" d="M201.7,121.5h41.9c2.1,0,3.9,1.7,3.9,3.9l0,0c0,2.1-1.7,3.9-3.9,3.9h-41.9c-2.1,0-3.9-1.7-3.9-3.9l0,0
	C197.8,123.3,199.5,121.5,201.7,121.5z"/>
<path class="st6" d="M201.7,135.8h41.9c2.1,0,3.9,1.7,3.9,3.9l0,0c0,2.1-1.7,3.9-3.9,3.9h-41.9c-2.1,0-3.9-1.7-3.9-3.9l0,0
	C197.8,137.5,199.5,135.8,201.7,135.8z"/>
<path class="st7" d="M222.6,115.1c11.8,0,21.3-9.5,21.3-21.3s-9.5-21.3-21.3-21.3s-21.3,9.5-21.3,21.3
	C201.3,105.5,210.9,115.1,222.6,115.1z"/>
<g>
	<path class="st3" d="M223.6,99.6h-2c-6.6,0-11.9,5.5-11.9,12.4c0,1.7,1.3,3.1,3,3.1h19.8c1.6,0,3-1.4,3-3.1
		C235.5,105.2,230.2,99.6,223.6,99.6z"/>
	<path class="st4" d="M226.8,79.1c-0.6-0.2-1.3-0.2-2-0.2h-2.3l-2.9,0.4c-3.4,0.2-6.2,2.9-6.5,6.3l-0.8,7.9c-0.1,1.4,1,2.6,2.3,2.6
		h16.7c1.4,0,2.5-1.2,2.3-2.6l-0.7-7C232.7,82.9,230.2,80,226.8,79.1z"/>
	<path class="st1" d="M223,80.4c4.7,0,8.6,3.8,8.6,8.6s-3.8,8.6-8.6,8.6c-4.7,0-8.6-3.8-8.6-8.6S218.3,80.4,223,80.4z"/>
	<path class="st4" d="M228.5,80.4l-3.1-0.8h-0.8H221c-4.1,0-7.4,3.3-7.4,7.4v2h3.1c3.9,0,7.2-1.8,8.3-5.4c2,0.2,3.7,1.8,3.9,3.8l0,0
		c0.2,1.8,1.7,3.1,3.5,3.1v-6.3L228.5,80.4z"/>
	<path class="st4" d="M212.7,89.7l10.9-7.2l2.6,1v-2.3c0-2.2-1.7-3.9-3.9-3.9h-0.6c-4.4,0-8.1,3.4-8.6,7.8L212.7,89.7z"/>
</g>
</svg>
